# xmcd
#
# Track frame offsets: 
#        150
#        23649
#        46100
#        63566
#        81984
#        100974
#        139305
#        162396
#        173909
#
# Disc length: 2556 seconds
#
# Revision: 0
# Processed by: cddbd v1.5.2PL0 Copyright (c) Steve Scherf et al.
# Submitted via: ExactAudioCopy v0.99pb4
#
DISCID=7509fa09
DTITLE=Matt O'Ree - Live
DYEAR=2008
DGENRE=Rock
TTITLE0=What Yiu Got
TTITLE1=Back Home
TTITLE2=Saints and Sinners
TTITLE3=Running Home
TTITLE4=It's a Crime
TTITLE5=Theresa
TTITLE6=Bringing the Blues
TTITLE7=Song for Bernie
TTITLE8=Over
EXTD=
EXTT0=
EXTT1=
EXTT2=
EXTT3=
EXTT4=
EXTT5=
EXTT6=
EXTT7=
EXTT8=
PLAYORDER=
